<?xml version="1.0" standalone="no"?>
<!DOCTYPE svg PUBLIC "-//W3C//DTD SVG 1.1//EN" "http://www.w3.org/Graphics/SVG/1.1/DTD/svg11.dtd" >
<svg xmlns="http://www.w3.org/2000/svg" xmlns:xlink="http://www.w3.org/1999/xlink" version="1.1">
<metadata></metadata>
<defs>
<font id="johnny_feverregular" horiz-adv-x="1099" >
<font-face units-per-em="2048" ascent="1544" descent="-504" />
<missing-glyph horiz-adv-x="544" />
<glyph unicode="&#x28;C&#x29;" horiz-adv-x="1435" d="M82 299v836q0 82 17.5 139t54 92t96 51.5t143.5 16.5h649q168 0 240 -68t72 -231v-836q0 -164 -72 -231.5t-240 -67.5h-649q-84 0 -143.5 16.5t-96 51t-54 92t-17.5 139.5zM287 272q0 -53 23.5 -75.5t70.5 -22.5h676q47 0 68.5 22.5t21.5 75.5v889q0 53 -21.5 74.5 t-68.5 21.5h-676q-47 0 -70.5 -21.5t-23.5 -74.5v-889zM465 543v370q0 78 46 132.5t136 54.5h303v-205h-303q-43 0 -43 -35v-276q0 -16 8.5 -19.5t34.5 -3.5h303v-203h-303q-86 0 -134 49.5t-48 135.5z" />
<glyph unicode="&#x28;R&#x29;" horiz-adv-x="1435" d="M82 299v836q0 82 17.5 139t54 92t96 51.5t143.5 16.5h649q168 0 240 -68t72 -231v-836q0 -164 -72 -231.5t-240 -67.5h-649q-84 0 -143.5 16.5t-96 51t-54 92t-17.5 139.5zM287 272q0 -53 23.5 -75.5t70.5 -22.5h676q47 0 68.5 22.5t21.5 75.5v889q0 53 -21.5 74.5 t-68.5 21.5h-676q-47 0 -70.5 -21.5t-23.5 -74.5v-889zM461 358v476h299q43 0 43 30q0 33 -43 33h-299v203h299q182 0 182 -187v-116q0 -63 -34 -113.5t-99 -52.5l195 -273h-195l-178 260h-33v-260h-137z" />
<glyph horiz-adv-x="0" />
<glyph unicode="&#xd;" horiz-adv-x="544" />
<glyph horiz-adv-x="544" />
<glyph unicode=" "  horiz-adv-x="544" />
<glyph unicode="&#x09;" horiz-adv-x="544" />
<glyph unicode="&#xa0;" horiz-adv-x="544" />
<glyph unicode="!" horiz-adv-x="516" d="M104 51v234q0 51 52 51h204q51 0 52 -51v-234q0 -51 -52 -51h-204q-51 0 -52 51zM125 547v887h266v-887h-266z" />
<glyph unicode="&#x22;" horiz-adv-x="817" d="M74 938v559h254v-559h-254zM487 938v559h256v-559h-256z" />
<glyph unicode="#" horiz-adv-x="991" d="M41 356l49 191h121l90 375h-123l45 188h123l80 324h133l-78 -324h189l80 324h135l-78 -324h143l-47 -188h-143l-90 -375h141l-43 -191h-141l-90 -356h-134l89 356h-191l-86 -356h-135l86 356h-125zM346 547h189l92 375h-191z" />
<glyph unicode="$" horiz-adv-x="1073" d="M88 0v393h401v176h-106q-295 0 -295 287v250q0 162 76 245t254 83h71v122h123v-122h361v-396h-361v-120h33q199 0 277.5 -83t78.5 -251v-228q0 -356 -356 -356h-33v-123h-123v123h-401zM356 979q0 -29 12.5 -45t43.5 -16h77v120h-77q-31 0 -43.5 -14t-12.5 -45zM612 393 h37q70 0 70 86q0 90 -70 90h-37v-176z" />
<glyph unicode="%" horiz-adv-x="1562" d="M82 0zM82 842v393q0 199 194 198h127q193 0 193 -198v-393q0 -102 -50.5 -149.5t-142.5 -47.5h-127q-92 0 -143 47t-51 150zM193 0l958 1434h211l-952 -1434h-217zM229 909q0 -25 9.5 -36t37.5 -11h127q29 0 37 11.5t8 35.5v258q0 29 -11 39t-34 10h-127q-23 0 -35 -10 t-12 -39v-258zM967 197v393q0 199 194 198h127q193 0 193 -198v-393q0 -102 -50.5 -149.5t-142.5 -47.5h-127q-92 0 -143 47t-51 150zM1114 264q0 -25 9.5 -36t37.5 -11h127q29 0 37 11.5t8 35.5v258q0 29 -11 39t-34 10h-127q-23 0 -35 -10t-12 -39v-258z" />
<glyph unicode="&#x26;" horiz-adv-x="1148" d="M82 356v717q0 94 17.5 162t59.5 112t109.5 65.5t165.5 21.5h254v-396h-254q-29 0 -45 -20.5t-18 -67.5h721v-358h-136v-199h136v-393h-658q-188 0 -270 91t-82 265zM346 477q0 -84 88 -84h254v199h-342v-115z" />
<glyph unicode="'" horiz-adv-x="401" d="M74 938v559h254v-559h-254z" />
<glyph unicode="(" horiz-adv-x="690" d="M180 -258v1962q0 246 246 246h248v-348h-217q-51 0 -51 -52v-1654q0 -51 51 -52h217v-348h-248q-246 0 -246 246z" />
<glyph unicode=")" horiz-adv-x="690" d="M16 -156h217q51 0 52 52v1654q0 51 -52 52h-217v348h248q246 0 246 -246v-1962q0 -246 -246 -246h-248v348z" />
<glyph unicode="*" horiz-adv-x="1114" d="M33 971l69 215l357 -133l-17 381h226l-15 -379l359 131l69 -215l-364 -103l235 -299l-182 -133l-213 318l-213 -320l-180 135l235 297z" />
<glyph unicode="+" horiz-adv-x="1030" d="M98 588v264h338v356h158v-356h338v-264h-338v-361h-158v361h-338z" />
<glyph unicode="," horiz-adv-x="512" d="M74 -201l57 252v234q0 51 51 51h205q51 0 51 -51v-152q0 -14 -4 -27l-115 -307h-245z" />
<glyph unicode="-" horiz-adv-x="749" d="M43 569v320h664v-320h-664z" />
<glyph unicode="." horiz-adv-x="454" d="M74 51v234q0 51 51 51h205q51 0 51 -51v-234q0 -51 -51 -51h-205q-51 0 -51 51z" />
<glyph unicode="/" horiz-adv-x="972" d="M0 -287l717 2011h256l-717 -2011h-256z" />
<glyph unicode="0" d="M82 0zM82 356v717q0 176 89 268.5t263 92.5h232q174 0 263 -92.5t89 -268.5v-717q0 -186 -92 -271t-260 -85h-232q-168 0 -260 85t-92 271zM350 481q0 -47 15.5 -67.5t68.5 -20.5h232q53 0 68.5 20.5t15.5 67.5v469q0 49 -21.5 68.5t-62.5 19.5h-232q-41 0 -62.5 -19.5 t-21.5 -68.5v-469z" />
<glyph unicode="1" horiz-adv-x="618" d="M35 1038v396h137q180 0 267 -96.5t87 -264.5v-1073h-266v969q0 70 -88 69h-137z" />
<glyph unicode="2" horiz-adv-x="1110" d="M82 0v584q0 88 16.5 152.5t57.5 105.5t109.5 60.5t170.5 19.5h256q39 0 51.5 14t12.5 43q0 31 -13.5 45t-52.5 14h-522v396h494q96 0 164.5 -16.5t111.5 -54.5t62.5 -99.5t19.5 -149.5v-237q0 -96 -18.5 -163t-59.5 -108t-110.5 -59.5t-169.5 -18.5h-238 q-45 0 -61.5 -22.5t-16.5 -67.5v-45h674v-393h-938z" />
<glyph unicode="3" horiz-adv-x="966" d="M66 0v393h483q35 0 46 14.5t11 45.5q0 33 -11 49t-46 16h-410v393h416q45 0 58.5 15.5t13.5 48.5t-13.5 48t-58.5 15h-489v396h518q150 0 227.5 -73t77.5 -222v-209q0 -90 -31 -142.5t-76 -68.5q45 -20 76 -63.5t31 -133.5v-184q0 -164 -69.5 -251t-239.5 -87h-514z" />
<glyph unicode="4" horiz-adv-x="1011" d="M68 778v656h268v-547q0 -88 88 -88h184v362h266v-362h93v-393h-93v-406h-266v406h-184q-102 0 -170 24.5t-110 71.5t-59 116.5t-17 159.5z" />
<glyph unicode="5" horiz-adv-x="1048" d="M68 0v393h557q74 0 73 74q0 80 -73 80h-557l43 887h833v-396h-553l-8 -98h242q186 0 271 -81t85 -275v-228q0 -182 -85 -269t-271 -87h-557z" />
<glyph unicode="6" horiz-adv-x="1095" d="M82 356v717q0 193 82 277t270 84h469v-398h-469q-49 0 -68.5 -28.5t-19.5 -92.5h316q178 0 267 -77.5t89 -255.5v-226q0 -78 -23.5 -143.5t-69.5 -112.5t-111.5 -73.5t-151.5 -26.5h-228q-172 0 -262 83t-90 273zM346 588q0 -109 15.5 -153t72.5 -44h228q88 0 88 58v92 q0 47 -88 47h-316z" />
<glyph unicode="7" horiz-adv-x="1042" d="M45 0l563 1038h-526v396h739q100 0 156.5 -56.5t56.5 -144.5q0 -78 -45 -162l-590 -1071h-354z" />
<glyph unicode="8" horiz-adv-x="1087" d="M76 338v184q0 90 30.5 133t75.5 64q-45 16 -75.5 68.5t-30.5 142.5v209q0 150 77.5 222.5t227.5 72.5h326q150 0 227.5 -73t77.5 -222v-209q0 -90 -31 -142.5t-76 -68.5q45 -20 76 -63.5t31 -133.5v-184q0 -164 -70 -251t-240 -87h-317q-170 0 -239.5 87t-69.5 251z M338 954q0 -41 17.5 -60.5t72.5 -19.5h231q55 0 73 19.5t18 60.5t-17.5 60.5t-73.5 19.5h-231q-55 0 -72.5 -19.5t-17.5 -60.5zM358 477q0 -43 15.5 -63.5t64.5 -20.5h211q49 0 64.5 20.5t15.5 63.5q0 45 -15.5 68.5t-64.5 23.5h-211q-49 0 -64.5 -23.5t-15.5 -68.5z" />
<glyph unicode="9" horiz-adv-x="1087" d="M70 848v225q0 162 86 261.5t268 99.5h258q166 0 245 -91.5t79 -269.5v-717q0 -168 -95.5 -262t-257.5 -94h-471v393h471q49 0 67.5 29t18.5 92h-354q-168 0 -241.5 77t-73.5 257zM338 889q0 -47 86 -47h315q0 109 -15 152.5t-71 43.5h-229q-86 0 -86 -57v-92z" />
<glyph unicode=":" horiz-adv-x="565" d="M129 195v233q0 51 51 51h205q51 0 51 -51v-233q0 -51 -51 -52h-205q-51 0 -51 52zM129 911v234q0 51 51 51h205q51 0 51 -51v-234q0 -51 -51 -51h-205q-51 0 -51 51z" />
<glyph unicode=";" horiz-adv-x="565" d="M74 -57l57 252v233q0 51 51 51h205q51 0 51 -51v-152q0 -14 -4 -26l-115 -307h-245zM131 911v234q0 51 51 51h205q51 0 51 -51v-234q0 -51 -51 -51h-205q-51 0 -51 51z" />
<glyph unicode="&#x3c;" horiz-adv-x="1030" d="M98 567v305l834 390v-279l-633 -264l633 -262v-279z" />
<glyph unicode="=" horiz-adv-x="1030" d="M98 322v264h834v-264h-834zM98 854v264h834v-264h-834z" />
<glyph unicode="&#x3e;" horiz-adv-x="1030" d="M98 178v279l633 262l-633 264v279l834 -390v-305z" />
<glyph unicode="?" horiz-adv-x="1050" d="M43 1038v396h580q199 0 280.5 -94.5t81.5 -290.5v-109q0 -166 -80 -258t-264 -92h-172v-94h-246v202q0 197 189 197h211q80 0 79 70q0 74 -79 73h-580zM190 51v234q0 51 52 51h204q51 0 52 -51v-234q0 -51 -52 -51h-204q-51 0 -52 51z" />
<glyph unicode="@" horiz-adv-x="1079" d="M82 -109v1024q0 123 46 184.5t167 61.5h483q127 0 173 -61.5t46 -184.5v-477q0 -225 -141 -225h-338v319h195q29 0 28 46v206q0 45 -28 45h-316q-33 0 -32 -51v-727q0 -51 32 -51h596v-354h-700q-121 0 -166 61.5t-45 183.5z" />
<glyph unicode="A" horiz-adv-x="1116" d="M90 0v952q0 242 92 362t264 120h216q176 0 270 -120t94 -362v-952h-266v492h-404v-492h-266zM356 799h404v100q0 72 -26.5 105.5t-86.5 33.5h-182q-109 0 -109 -139v-100z" />
<glyph unicode="B" horiz-adv-x="1093" d="M98 0v874h588q43 0 61.5 19.5t18.5 60.5q0 43 -18.5 64.5t-61.5 21.5h-588v394h582q174 0 263 -87t89 -237v-166q0 -98 -31.5 -151.5t-80.5 -73.5q57 -23 84.5 -69t27.5 -138v-156q0 -76 -17.5 -140t-58.5 -112.5t-109.5 -76t-170.5 -27.5h-578zM365 393h323 q47 0 63.5 21.5t16.5 66.5t-17.5 66.5t-62.5 21.5h-323v-176z" />
<glyph unicode="C" horiz-adv-x="1077" d="M82 356v717q0 176 89 268.5t263 92.5h584v-396h-584q-41 0 -62.5 -19.5t-21.5 -68.5v-469q0 -47 15.5 -67.5t68.5 -20.5h584v-393h-584q-168 0 -260 85t-92 271z" />
<glyph unicode="D" horiz-adv-x="1118" d="M98 0v918h267v-525h317q45 0 66.5 19.5t21.5 68.5v473q0 41 -16.5 62.5t-71.5 21.5h-584v396h584q184 0 269 -96.5t85 -264.5v-717q0 -68 -20 -132t-62.5 -113.5t-110 -80t-161.5 -30.5h-584z" />
<glyph unicode="E" d="M98 0v922h811v-394h-544v-135h667v-393h-934zM98 1040v394h934v-396z" />
<glyph unicode="F" horiz-adv-x="1079" d="M98 0v918h781v-392h-514v-526h-267zM98 1038v396h938v-396h-938z" />
<glyph unicode="G" horiz-adv-x="1105" d="M82 365v708q0 168 92 264.5t260 96.5h584v-396h-600q-72 0 -72 -94v-463q0 -55 21.5 -71.5t66.5 -16.5h318v129h-289v393h368q102 0 144.5 -46t42.5 -150v-719h-584q-168 0 -260 92t-92 273z" />
<glyph unicode="H" horiz-adv-x="1130" d="M98 0v1434h267v-408h403v408h264v-1434h-264v633h-403v-633h-267z" />
<glyph unicode="I" horiz-adv-x="462" d="M98 0v1434h267v-1434h-267z" />
<glyph unicode="J" horiz-adv-x="858" d="M43 0v393h373q76 0 76 64v977h268v-1037q0 -199 -85 -298t-272 -99h-360z" />
<glyph unicode="K" horiz-adv-x="1212" d="M98 0v1434h267v-435l421 435h412l-573 -600l594 -834h-445l-409 604v-604h-267z" />
<glyph unicode="L" horiz-adv-x="858" d="M98 0v1434h267v-1041h450v-393h-717z" />
<glyph unicode="M" horiz-adv-x="1490" d="M94 0v1272q0 92 49.5 136t108.5 44q47 0 90 -26.5t66 -79.5l337 -820l338 820q23 53 66 79.5t90 26.5q59 0 108.5 -44t49.5 -136v-1272h-267v676l-274 -604q-33 -76 -111 -76t-110 76l-275 604v-676h-266z" />
<glyph unicode="N" horiz-adv-x="1122" d="M94 0v1294q0 78 40 118t93 40q39 0 77 -22.5t67 -69.5l393 -686v758h264v-1328q0 -66 -31.5 -98.5t-74.5 -32.5q-35 0 -69 19.5t-58 60.5l-435 699v-752h-266z" />
<glyph unicode="O" d="M82 356v717q0 176 89 268.5t263 92.5h232q174 0 263 -92.5t89 -268.5v-717q0 -186 -92 -271t-260 -85h-232q-168 0 -260 85t-92 271zM350 481q0 -47 15.5 -67.5t68.5 -20.5h232q53 0 68.5 20.5t15.5 67.5v469q0 49 -21.5 68.5t-62.5 19.5h-232q-41 0 -62.5 -19.5 t-21.5 -68.5v-469z" />
<glyph unicode="P" horiz-adv-x="1077" d="M98 0v918h609q41 0 52 12t11 47t-11 49t-52 14h-609v394h582q100 0 169 -22.5t108.5 -69t57 -114t17.5 -155.5v-192q0 -170 -80 -263.5t-272 -93.5h-315v-524h-267z" />
<glyph unicode="Q" d="M82 356v717q0 176 89 268.5t263 92.5h232q174 0 263 -92.5t89 -268.5v-717q0 -186 -92 -271t-260 -85h-48v-254h-126v254h-58q-168 0 -260 85t-92 271zM344 465q0 -47 15.5 -67.5t68.5 -20.5h64v196h126v-196h54q53 0 68.5 20.5t15.5 67.5v485q0 49 -21.5 68.5 t-62.5 19.5h-244q-41 0 -62.5 -19.5t-21.5 -68.5v-485z" />
<glyph unicode="R" horiz-adv-x="1101" d="M98 0v918h594q41 0 55.5 11t14.5 48t-14.5 50t-55.5 13h-594v394h582q94 0 161.5 -18.5t109.5 -61.5t61.5 -111.5t19.5 -169.5v-225q0 -150 -65.5 -234t-194.5 -88l295 -526h-324l-266 502h-112v-502h-267z" />
<glyph unicode="S" horiz-adv-x="1042" d="M68 0v393h561q69 0 69 84q0 92 -69 92h-267q-295 0 -294 287v250q0 162 75.5 245t253.5 83h555v-396h-561q-31 0 -43 -14t-12 -45q0 -29 12 -45t43 -16h234q199 0 277.5 -83t78.5 -251v-228q0 -356 -356 -356h-557z" />
<glyph unicode="T" horiz-adv-x="1024" d="M43 1038v396h938v-396h-938zM379 0v918h268v-918h-268z" />
<glyph unicode="U" horiz-adv-x="1114" d="M90 356v1078h266v-955q0 -47 21.5 -66.5t66.5 -19.5h228q43 0 64.5 19.5t21.5 66.5v955h266v-1078q0 -80 -17.5 -145.5t-57.5 -112.5t-103.5 -72.5t-153.5 -25.5h-268q-174 0 -254 98.5t-80 257.5z" />
<glyph unicode="V" horiz-adv-x="1142" d="M10 1434h312l256 -869l268 869h287l-414 -1338q-18 -57 -61.5 -84.5t-92.5 -27.5t-93 27.5t-60 84.5z" />
<glyph unicode="W" horiz-adv-x="1486" d="M90 356v1078h266v-949q0 -92 88 -92h172v1041h267v-1041h159q88 0 88 92v949h267v-1078q0 -193 -88 -274.5t-267 -81.5h-598q-168 0 -261 82t-93 274z" />
<glyph unicode="X" horiz-adv-x="1185" d="M10 0l393 729l-374 705h358l215 -445l232 445h337l-387 -709l392 -725h-353l-243 483l-244 -483h-326z" />
<glyph unicode="Y" horiz-adv-x="1122" d="M88 905v529h268v-486q0 -41 16.5 -60.5t57.5 -19.5h328v566h266v-1078q0 -166 -88 -261t-266 -95h-453v393h453q82 0 82 66v59h-308q-174 0 -265 94.5t-91 292.5z" />
<glyph unicode="Z" horiz-adv-x="1087" d="M55 207q0 80 49 151l486 680h-510v396h745q100 0 154.5 -56.5t54.5 -134.5q0 -35 -11 -69.5t-34 -69.5l-487 -711h522v-393h-754q-53 0 -94 17.5t-67.5 46t-40 65.5t-13.5 78z" />
<glyph unicode="[" horiz-adv-x="690" d="M160 -504v2454h493v-348h-268v-1758h268v-348h-493z" />
<glyph unicode="\" horiz-adv-x="972" d="M0 1724h256l717 -2011h-256z" />
<glyph unicode="]" horiz-adv-x="690" d="M37 -156h268v1758h-268v348h493v-2454h-493v348z" />
<glyph unicode="^" horiz-adv-x="960" d="M98 612l230 822h305l229 -822h-262l-121 486l-121 -486h-260z" />
<glyph unicode="_" horiz-adv-x="1173" d="M-4 -152h1186v-264h-1186v264z" />
<glyph unicode="`" horiz-adv-x="669" d="M98 1954h310l163 -455h-286z" />
<glyph unicode="a" horiz-adv-x="1116" d="M90 0v952q0 242 92 362t264 120h216q176 0 270 -120t94 -362v-952h-266v492h-404v-492h-266zM90 0zM356 799h404v100q0 72 -26.5 105.5t-86.5 33.5h-182q-109 0 -109 -139v-100z" />
<glyph unicode="b" horiz-adv-x="1093" d="M98 0v874h588q43 0 61.5 19.5t18.5 60.5q0 43 -18.5 64.5t-61.5 21.5h-588v394h582q174 0 263 -87t89 -237v-166q0 -98 -31.5 -151.5t-80.5 -73.5q57 -23 84.5 -69t27.5 -138v-156q0 -76 -17.5 -140t-58.5 -112.5t-109.5 -76t-170.5 -27.5h-578zM98 0zM365 393h323 q47 0 63.5 21.5t16.5 66.5t-17.5 66.5t-62.5 21.5h-323v-176z" />
<glyph unicode="c" horiz-adv-x="1077" d="M82 0zM82 356v717q0 176 89 268.5t263 92.5h584v-396h-584q-41 0 -62.5 -19.5t-21.5 -68.5v-469q0 -47 15.5 -67.5t68.5 -20.5h584v-393h-584q-168 0 -260 85t-92 271z" />
<glyph unicode="d" horiz-adv-x="1118" d="M98 0v918h267v-525h317q45 0 66.5 19.5t21.5 68.5v473q0 41 -16.5 62.5t-71.5 21.5h-584v396h584q184 0 269 -96.5t85 -264.5v-717q0 -68 -20 -132t-62.5 -113.5t-110 -80t-161.5 -30.5h-584zM98 0z" />
<glyph unicode="e" d="M98 0v922h811v-394h-544v-135h667v-393h-934zM98 0zM98 1040v394h934v-396z" />
<glyph unicode="f" horiz-adv-x="1079" d="M98 0v918h781v-392h-514v-526h-267zM98 0zM98 1038v396h938v-396h-938z" />
<glyph unicode="g" horiz-adv-x="1105" d="M82 0zM82 365v708q0 168 92 264.5t260 96.5h584v-396h-600q-72 0 -72 -94v-463q0 -55 21.5 -71.5t66.5 -16.5h318v129h-289v393h368q102 0 144.5 -46t42.5 -150v-719h-584q-168 0 -260 92t-92 273z" />
<glyph unicode="h" horiz-adv-x="1130" d="M98 0v1434h267v-408h403v408h264v-1434h-264v633h-403v-633h-267zM98 0z" />
<glyph unicode="i" horiz-adv-x="462" d="M98 0v1434h267v-1434h-267zM98 0z" />
<glyph unicode="j" horiz-adv-x="858" d="M43 0v393h373q76 0 76 64v977h268v-1037q0 -199 -85 -298t-272 -99h-360zM43 0z" />
<glyph unicode="k" horiz-adv-x="1212" d="M98 0v1434h267v-435l421 435h412l-573 -600l594 -834h-445l-409 604v-604h-267zM98 0z" />
<glyph unicode="l" horiz-adv-x="858" d="M98 0v1434h267v-1041h450v-393h-717zM98 0z" />
<glyph unicode="m" horiz-adv-x="1490" d="M94 0v1272q0 92 49.5 136t108.5 44q47 0 90 -26.5t66 -79.5l337 -820l338 820q23 53 66 79.5t90 26.5q59 0 108.5 -44t49.5 -136v-1272h-267v676l-274 -604q-33 -76 -111 -76t-110 76l-275 604v-676h-266zM94 0z" />
<glyph unicode="n" horiz-adv-x="1122" d="M94 0v1294q0 78 40 118t93 40q39 0 77 -22.5t67 -69.5l393 -686v758h264v-1328q0 -66 -31.5 -98.5t-74.5 -32.5q-35 0 -69 19.5t-58 60.5l-435 699v-752h-266zM94 0z" />
<glyph unicode="o" d="M82 0zM82 356v717q0 176 89 268.5t263 92.5h232q174 0 263 -92.5t89 -268.5v-717q0 -186 -92 -271t-260 -85h-232q-168 0 -260 85t-92 271zM350 481q0 -47 15.5 -67.5t68.5 -20.5h232q53 0 68.5 20.5t15.5 67.5v469q0 49 -21.5 68.5t-62.5 19.5h-232q-41 0 -62.5 -19.5 t-21.5 -68.5v-469z" />
<glyph unicode="p" horiz-adv-x="1077" d="M98 0v918h609q41 0 52 12t11 47t-11 49t-52 14h-609v394h582q100 0 169 -22.5t108.5 -69t57 -114t17.5 -155.5v-192q0 -170 -80 -263.5t-272 -93.5h-315v-524h-267zM98 0z" />
<glyph unicode="q" d="M82 0zM82 356v717q0 176 89 268.5t263 92.5h232q174 0 263 -92.5t89 -268.5v-717q0 -186 -92 -271t-260 -85h-48v-254h-126v254h-58q-168 0 -260 85t-92 271zM344 465q0 -47 15.5 -67.5t68.5 -20.5h64v196h126v-196h54q53 0 68.5 20.5t15.5 67.5v485q0 49 -21.5 68.5 t-62.5 19.5h-244q-41 0 -62.5 -19.5t-21.5 -68.5v-485z" />
<glyph unicode="r" horiz-adv-x="1101" d="M98 0v918h594q41 0 55.5 11t14.5 48t-14.5 50t-55.5 13h-594v394h582q94 0 161.5 -18.5t109.5 -61.5t61.5 -111.5t19.5 -169.5v-225q0 -150 -65.5 -234t-194.5 -88l295 -526h-324l-266 502h-112v-502h-267zM98 0z" />
<glyph unicode="s" horiz-adv-x="1042" d="M68 0v393h561q69 0 69 84q0 92 -69 92h-267q-295 0 -294 287v250q0 162 75.5 245t253.5 83h555v-396h-561q-31 0 -43 -14t-12 -45q0 -29 12 -45t43 -16h234q199 0 277.5 -83t78.5 -251v-228q0 -356 -356 -356h-557zM68 0z" />
<glyph unicode="t" horiz-adv-x="1024" d="M43 0zM43 1038v396h938v-396h-938zM379 0v918h268v-918h-268z" />
<glyph unicode="u" horiz-adv-x="1114" d="M90 0zM90 356v1078h266v-955q0 -47 21.5 -66.5t66.5 -19.5h228q43 0 64.5 19.5t21.5 66.5v955h266v-1078q0 -80 -17.5 -145.5t-57.5 -112.5t-103.5 -72.5t-153.5 -25.5h-268q-174 0 -254 98.5t-80 257.5z" />
<glyph unicode="v" horiz-adv-x="1142" d="M10 0zM10 1434h312l256 -869l268 869h287l-414 -1338q-18 -57 -61.5 -84.5t-92.5 -27.5t-93 27.5t-60 84.5z" />
<glyph unicode="w" horiz-adv-x="1486" d="M90 0zM90 356v1078h266v-949q0 -92 88 -92h172v1041h267v-1041h159q88 0 88 92v949h267v-1078q0 -193 -88 -274.5t-267 -81.5h-598q-168 0 -261 82t-93 274z" />
<glyph unicode="x" horiz-adv-x="1185" d="M10 0l393 729l-374 705h358l215 -445l232 445h337l-387 -709l392 -725h-353l-243 483l-244 -483h-326zM10 0z" />
<glyph unicode="y" horiz-adv-x="1122" d="M88 0zM88 905v529h268v-486q0 -41 16.5 -60.5t57.5 -19.5h328v566h266v-1078q0 -166 -88 -261t-266 -95h-453v393h453q82 0 82 66v59h-308q-174 0 -265 94.5t-91 292.5z" />
<glyph unicode="z" horiz-adv-x="1087" d="M55 0zM55 207q0 80 49 151l486 680h-510v396h745q100 0 154.5 -56.5t54.5 -134.5q0 -35 -11 -69.5t-34 -69.5l-487 -711h522v-393h-754q-53 0 -94 17.5t-67.5 46t-40 65.5t-13.5 78z" />
<glyph unicode="{" horiz-adv-x="700" d="M106 580v286h74q51 0 51 52v786q0 246 246 246h166v-348h-135q-51 0 -51 -52v-632q0 -127 -105 -195q104 -66 105 -195v-632q0 -51 51 -52h135v-348h-166q-246 0 -246 246v786q0 51 -51 52h-74z" />
<glyph unicode="|" horiz-adv-x="778" d="M276 -287v2011h226v-2011h-226z" />
<glyph unicode="}" horiz-adv-x="700" d="M57 -156h136q51 0 51 52v632q0 129 104 195q-104 68 -104 195v632q0 51 -51 52h-136v348h166q246 0 246 -246v-786q0 -51 51 -52h74v-286h-74q-51 0 -51 -52v-786q0 -246 -246 -246h-166v348z" />
<glyph unicode="~" horiz-adv-x="1032" d="M98 551v285l187 71q14 4 23 7.5t20 3.5q8 0 15 -2.5t17 -6.5l306 -104q8 -2 13 -3t9 -1q6 0 19 6l227 86v-285l-186 -69q-27 -10 -41 -11q-12 0 -31 7l-307 106q-16 4 -19 4q-8 0 -22 -6z" />
<glyph unicode="&#xa1;" horiz-adv-x="516" d="M104 754v233q0 51 52 51h204q51 0 52 -51v-233q0 -51 -52 -52h-204q-51 0 -52 52zM125 -395v887h266v-887h-266z" />
<glyph unicode="&#xa2;" horiz-adv-x="776" d="M90 422v651q0 111 33 161t117 50h106v150h221v-150h144v-350h-308q-20 0 -26 -11.5t-6 -37.5v-262q0 -27 6 -38.5t26 -11.5h308v-362h-144v-211h-221v211h-106q-84 0 -117 50t-33 161z" />
<glyph unicode="&#xa3;" horiz-adv-x="937" d="M43 0v393h111v219h-86v170h86v291q0 74 23.5 139.5t67.5 114.5t110.5 78t152.5 29h352v-396h-352q-84 0 -84 -69v-187h215v-170h-215v-219h448v-393h-829z" />
<glyph unicode="&#xa4;" horiz-adv-x="1052" d="M98 156l181 301v524l-181 297l92 156l179 -301h315l176 301l94 -156l-182 -297v-524l182 -301l-94 -156l-176 307h-315l-179 -307zM399 502h254v430h-254v-430z" />
<glyph unicode="&#xa5;" horiz-adv-x="1019" d="M31 1434h321l168 -451l172 451h295l-321 -795h260v-166h-260v-123h260v-168h-260v-182h-312v182h-262v168h262v123h-262v166h260z" />
<glyph unicode="&#xa6;" horiz-adv-x="778" d="M276 -287v764h226v-764h-226zM276 1008v716h226v-716h-226z" />
<glyph unicode="&#xa7;" horiz-adv-x="978" d="M98 217v1010q0 106 33 156.5t121 50.5h625v-306h-482q-35 0 -35 -49v-141h367q88 0 121 -50t33 -157v-1028q0 -106 -33 -156.5t-121 -50.5h-614v320h471q35 0 34 49v145h-366q-88 0 -121 50.5t-33 156.5zM360 379q0 -47 35 -47h223v252q0 47 -34 47h-224v-252z" />
<glyph unicode="&#xa8;" horiz-adv-x="995" d="M98 1604v233q0 51 52 51h204q51 0 52 -51v-233q0 -51 -52 -52h-204q-51 0 -52 52zM590 1604v233q0 51 51 51h205q51 0 51 -51v-233q0 -51 -51 -52h-205q-51 0 -51 52z" />
<glyph unicode="&#xaa;" horiz-adv-x="675" d="M80 645v524q0 133 51 199t145 66h119q96 0 148.5 -65.5t52.5 -199.5v-524h-147v270h-222v-270h-147zM227 1085h222v54q0 78 -62 78h-100q-59 0 -60 -78v-54z" />
<glyph unicode="&#xab;" horiz-adv-x="995" d="M27 131zM27 690q0 80 69 152l373 407v-364l-174 -195l174 -192v-367l-373 412q-35 39 -52 74.5t-17 72.5zM525 690q0 80 69 152l373 407v-364l-174 -195l174 -192v-367l-373 412q-35 39 -52 74.5t-17 72.5z" />
<glyph unicode="&#xac;" horiz-adv-x="1122" d="M43 588v264h981v-829h-264v565h-717z" />
<glyph unicode="&#xad;" horiz-adv-x="749" d="M43 569v320h664v-320h-664z" />
<glyph unicode="&#xaf;" horiz-adv-x="1124" d="M98 1573v278h928v-278h-928z" />
<glyph unicode="&#xb0;" horiz-adv-x="641" d="M82 942v311q0 96 27.5 138.5t99.5 42.5h221q74 0 101.5 -42t27.5 -139v-311q0 -96 -27.5 -138t-101.5 -42h-221q-72 0 -99.5 42t-27.5 138zM219 987q0 -45 31 -45h141q29 0 29 45v234q0 47 -29 47h-141q-31 0 -31 -47v-234z" />
<glyph unicode="&#xb1;" horiz-adv-x="1030" d="M98 0zM98 -129v264h834v-264h-834zM98 588v264h338v356h158v-356h338v-264h-338v-361h-158v361h-338z" />
<glyph unicode="&#xb2;" horiz-adv-x="671" d="M76 645v322q0 98 40 142t154 44h142q23 0 28.5 7t5.5 24q0 16 -7 24t-29 8h-287v217h272q106 0 151.5 -38.5t45.5 -137.5v-131q0 -104 -43 -147t-154 -43h-131q-25 0 -34 -12.5t-9 -36.5v-25h371v-217h-516zM76 645z" />
<glyph unicode="&#xb3;" horiz-adv-x="593" d="M68 645v217h264q20 0 26.5 8t6.5 25q0 16 -6.5 25.5t-26.5 9.5h-226v217h230q25 0 32 8t7 27q0 16 -7.5 25t-31.5 9h-268v217h284q168 0 168 -161v-115q0 -49 -17.5 -77.5t-41.5 -39.5q25 -10 42 -34.5t17 -73.5v-101q0 -92 -38 -139t-132 -47h-282zM68 645z" />
<glyph unicode="&#xb4;" horiz-adv-x="669" d="M98 1499l164 455h309l-186 -455h-287z" />
<glyph unicode="&#xb6;" horiz-adv-x="1220" d="M84 993v228q0 109 33 161t116 52h961v-258h-129v-1479h-221v1479h-203v-1479h-221v1083h-189q-78 0 -112.5 53.5t-34.5 159.5z" />
<glyph unicode="&#xb7;" horiz-adv-x="454" d="M74 578zM74 629v234q0 51 51 51h205q51 0 51 -51v-234q0 -51 -51 -51h-205q-51 0 -51 51z" />
<glyph unicode="&#xb8;" horiz-adv-x="561" d="M98 -504l58 170v234q0 51 51 51h205q51 0 51 -51v-152q0 -14 -4 -27l-115 -225h-246z" />
<glyph unicode="&#xb9;" horiz-adv-x="401" d="M49 645zM49 1216v217h76q100 0 147 -53t47 -145v-590h-145v532q0 39 -49 39h-76z" />
<glyph unicode="&#xba;" horiz-adv-x="665" d="M76 842v393q0 199 194 199h127q193 0 193 -199v-393q0 -102 -50.5 -149.5t-142.5 -47.5h-127q-92 0 -143 47t-51 150zM223 909q0 -25 9.5 -36t37.5 -11h127q29 0 37 11.5t8 35.5v258q0 29 -11 39.5t-34 10.5h-127q-23 0 -35 -10.5t-12 -39.5v-258z" />
<glyph unicode="&#xbb;" horiz-adv-x="995" d="M27 131v367l176 192l-176 195v364l374 -407q68 -74 68 -152q0 -74 -68 -147zM27 131zM525 131v367l176 192l-176 195v364l374 -407q68 -74 68 -152q0 -74 -68 -147z" />
<glyph unicode="&#xbc;" horiz-adv-x="1497" d="M82 0l958 1434h211l-952 -1434h-217zM82 0zM168 1216v217h76q100 0 147 -53t47 -145v-590h-145v532q0 39 -49 39h-76zM920 428v360h147v-301q0 -47 49 -47h101v199h147v-199h51v-217h-51v-223h-147v223h-101q-113 0 -154.5 53.5t-41.5 151.5z" />
<glyph unicode="&#xbd;" horiz-adv-x="1443" d="M82 0l958 1434h211l-952 -1434h-217zM82 0zM168 1216v217h76q100 0 147 -53t47 -145v-590h-145v532q0 39 -49 39h-76zM846 0v322q0 98 40 142t154 44h142q23 0 28.5 7t5.5 24q0 16 -7 24t-29 8h-287v217h272q106 0 151.5 -38.5t45.5 -137.5v-131q0 -104 -43 -147 t-154 -43h-131q-25 0 -34 -12.5t-9 -36.5v-25h371v-217h-516z" />
<glyph unicode="&#xbe;" horiz-adv-x="1544" d="M82 0zM82 645v217h264q20 0 26.5 8t6.5 25q0 16 -6.5 25.5t-26.5 9.5h-226v217h230q25 0 32 8t7 27q0 16 -7.5 25t-31.5 9h-268v217h284q168 0 168 -161v-115q0 -49 -17.5 -77.5t-41.5 -39.5q25 -10 42 -34.5t17 -73.5v-101q0 -92 -38 -139t-132 -47h-282zM129 0 l958 1434h211l-952 -1434h-217zM967 428v360h147v-301q0 -47 49 -47h101v199h147v-199h51v-217h-51v-223h-147v223h-101q-113 0 -154.5 53.5t-41.5 151.5z" />
<glyph unicode="&#xbf;" horiz-adv-x="1050" d="M61 -10v108q0 166 80 258.5t265 92.5h172v94h245v-203q0 -197 -188 -197h-211q-80 0 -80 -69q0 -74 80 -74h580v-395h-580q-199 0 -281 94t-82 291zM549 754v233q0 51 51 51h205q51 0 51 -51v-233q0 -51 -51 -52h-205q-51 0 -51 52z" />
<glyph unicode="&#xc0;" horiz-adv-x="1116" d="M90 0v952q0 242 92 362t264 120h216q176 0 270 -120t94 -362v-952h-266v492h-404v-492h-266zM90 0zM260 1954h310l163 -455h-286zM356 799h404v100q0 72 -26.5 105.5t-86.5 33.5h-182q-109 0 -109 -139v-100z" />
<glyph unicode="&#xc1;" horiz-adv-x="1116" d="M90 0v952q0 242 92 362t264 120h216q176 0 270 -120t94 -362v-952h-266v492h-404v-492h-266zM90 0zM356 799h404v100q0 72 -26.5 105.5t-86.5 33.5h-182q-109 0 -109 -139v-100zM383 1499l164 455h309l-186 -455h-287z" />
<glyph unicode="&#xc2;" horiz-adv-x="1116" d="M90 0v952q0 242 92 362t264 120h216q176 0 270 -120t94 -362v-952h-266v492h-404v-492h-266zM90 0zM157 1499l258 455h289l254 -455h-254l-145 273l-144 -273h-258zM356 799h404v100q0 72 -26.5 105.5t-86.5 33.5h-182q-109 0 -109 -139v-100z" />
<glyph unicode="&#xc3;" horiz-adv-x="1116" d="M90 0v952q0 242 92 362t264 120h216q176 0 270 -120t94 -362v-952h-266v492h-404v-492h-266zM90 0zM94 1573v278h928v-278h-928zM356 799h404v100q0 72 -26.5 105.5t-86.5 33.5h-182q-109 0 -109 -139v-100z" />
<glyph unicode="&#xc4;" horiz-adv-x="1116" d="M90 0v952q0 242 92 362t264 120h216q176 0 270 -120t94 -362v-952h-266v492h-404v-492h-266zM90 0zM157 1604v233q0 51 52 51h204q51 0 52 -51v-233q0 -51 -52 -52h-204q-51 0 -52 52zM356 799h404v100q0 72 -26.5 105.5t-86.5 33.5h-182q-109 0 -109 -139v-100z M649 1604v233q0 51 51 51h205q51 0 51 -51v-233q0 -51 -51 -52h-205q-51 0 -51 52z" />
<glyph unicode="&#xc5;" horiz-adv-x="1116" d="M90 0v952q0 242 92 362t264 120h216q176 0 270 -120t94 -362v-952h-266v492h-404v-492h-266zM90 0zM307 1614v215q0 66 27 95.5t98 29.5h248q72 0 99.5 -30t27.5 -95v-215q0 -66 -27.5 -95.5t-99.5 -29.5h-248q-72 0 -98.5 29.5t-26.5 95.5zM356 799h404v100 q0 72 -26.5 105.5t-86.5 33.5h-182q-109 0 -109 -139v-100zM442 1645q0 -31 31 -31h168q29 0 29 31v161q0 33 -29 33h-168q-31 0 -31 -33v-161z" />
<glyph unicode="&#xc6;" horiz-adv-x="1763" d="M90 0v952q0 242 92 362t264 120h1250v-396h-1231q-100 0 -109 -116h1217v-394h-545v-135h668v-393h-934v614h-406v-614h-266z" />
<glyph unicode="&#xc7;" horiz-adv-x="1077" d="M82 0zM82 356v717q0 176 89 268.5t263 92.5h584v-396h-584q-41 0 -62.5 -19.5t-21.5 -68.5v-469q0 -47 15.5 -67.5t68.5 -20.5h584v-393h-584q-168 0 -260 85t-92 271zM397 -504l58 170v234q0 51 51 51h205q51 0 51 -51v-152q0 -14 -4 -27l-115 -225h-246z" />
<glyph unicode="&#xc8;" d="M98 0v922h811v-394h-544v-135h667v-393h-934zM98 0zM98 1040v394h934v-396zM270 1954h310l163 -455h-286z" />
<glyph unicode="&#xc9;" d="M98 0v922h811v-394h-544v-135h667v-393h-934zM98 0zM98 1040v394h934v-396zM395 1499l164 455h309l-186 -455h-287z" />
<glyph unicode="&#xca;" d="M98 0v922h811v-394h-544v-135h667v-393h-934zM98 0zM98 1040v394h934v-396zM168 1499l258 455h289l254 -455h-254l-145 273l-144 -273h-258z" />
<glyph unicode="&#xcb;" d="M98 0v922h811v-394h-544v-135h667v-393h-934zM98 0zM98 1040v394h934v-396zM168 1604v233q0 51 52 51h204q51 0 52 -51v-233q0 -51 -52 -52h-204q-51 0 -52 52zM660 1604v233q0 51 51 51h205q51 0 51 -51v-233q0 -51 -51 -52h-205q-51 0 -51 52z" />
<glyph unicode="&#xcc;" horiz-adv-x="532" d="M4 0zM4 1954h310l163 -455h-286zM168 0v1434h267v-1434h-267z" />
<glyph unicode="&#xcd;" horiz-adv-x="559" d="M57 0zM57 1499l164 455h309l-186 -455h-287zM98 0v1434h267v-1434h-267z" />
<glyph unicode="&#xce;" horiz-adv-x="735" d="M-33 1499l258 455h289l254 -455h-254l-145 273l-144 -273h-258zM0 0zM233 0v1434h267v-1434h-267z" />
<glyph unicode="&#xcf;" horiz-adv-x="708" d="M-45 1604v233q0 51 52 51h204q51 0 52 -51v-233q0 -51 -52 -52h-204q-51 0 -52 52zM0 0zM221 0v1434h267v-1434h-267zM447 1604v233q0 51 51 51h205q51 0 51 -51v-233q0 -51 -51 -52h-205q-51 0 -51 52z" />
<glyph unicode="&#xd0;" horiz-adv-x="1165" d="M0 516v307h145v95h267v-95h174v-307h-174v-123h317q88 0 88 70v491q0 31 -29.5 57.5t-58.5 26.5h-584v396h584q168 0 261 -96.5t93 -264.5v-717q0 -68 -23.5 -132t-68.5 -113.5t-110.5 -80t-151.5 -30.5h-584v516h-145z" />
<glyph unicode="&#xd1;" horiz-adv-x="1122" d="M94 0v1294q0 78 40 118t93 40q39 0 77 -22.5t67 -69.5l393 -686v758h264v-1328q0 -66 -31.5 -98.5t-74.5 -32.5q-35 0 -69 19.5t-58 60.5l-435 699v-752h-266zM94 0zM98 1573v278h928v-278h-928z" />
<glyph unicode="&#xd2;" d="M82 0zM82 356v717q0 176 89 268.5t263 92.5h232q174 0 263 -92.5t89 -268.5v-717q0 -186 -92 -271t-260 -85h-232q-168 0 -260 85t-92 271zM252 1954h310l163 -455h-286zM350 481q0 -47 15.5 -67.5t68.5 -20.5h232q53 0 68.5 20.5t15.5 67.5v469q0 49 -21.5 68.5 t-62.5 19.5h-232q-41 0 -62.5 -19.5t-21.5 -68.5v-469z" />
<glyph unicode="&#xd3;" d="M82 0zM82 356v717q0 176 89 268.5t263 92.5h232q174 0 263 -92.5t89 -268.5v-717q0 -186 -92 -271t-260 -85h-232q-168 0 -260 85t-92 271zM350 481q0 -47 15.5 -67.5t68.5 -20.5h232q53 0 68.5 20.5t15.5 67.5v469q0 49 -21.5 68.5t-62.5 19.5h-232q-41 0 -62.5 -19.5 t-21.5 -68.5v-469zM374 1499l164 455h309l-186 -455h-287z" />
<glyph unicode="&#xd4;" d="M82 0zM82 356v717q0 176 89 268.5t263 92.5h232q174 0 263 -92.5t89 -268.5v-717q0 -186 -92 -271t-260 -85h-232q-168 0 -260 85t-92 271zM149 1499l258 455h289l254 -455h-254l-145 273l-144 -273h-258zM350 481q0 -47 15.5 -67.5t68.5 -20.5h232q53 0 68.5 20.5 t15.5 67.5v469q0 49 -21.5 68.5t-62.5 19.5h-232q-41 0 -62.5 -19.5t-21.5 -68.5v-469z" />
<glyph unicode="&#xd5;" d="M82 0zM82 356v717q0 176 89 268.5t263 92.5h232q174 0 263 -92.5t89 -268.5v-717q0 -186 -92 -271t-260 -85h-232q-168 0 -260 85t-92 271zM86 1573v278h928v-278h-928zM350 481q0 -47 15.5 -67.5t68.5 -20.5h232q53 0 68.5 20.5t15.5 67.5v469q0 49 -21.5 68.5 t-62.5 19.5h-232q-41 0 -62.5 -19.5t-21.5 -68.5v-469z" />
<glyph unicode="&#xd6;" d="M82 0zM82 356v717q0 176 89 268.5t263 92.5h232q174 0 263 -92.5t89 -268.5v-717q0 -186 -92 -271t-260 -85h-232q-168 0 -260 85t-92 271zM149 1604v233q0 51 52 51h204q51 0 52 -51v-233q0 -51 -52 -52h-204q-51 0 -52 52zM350 481q0 -47 15.5 -67.5t68.5 -20.5h232 q53 0 68.5 20.5t15.5 67.5v469q0 49 -21.5 68.5t-62.5 19.5h-232q-41 0 -62.5 -19.5t-21.5 -68.5v-469zM641 1604v233q0 51 51 51h205q51 0 51 -51v-233q0 -51 -51 -52h-205q-51 0 -51 52z" />
<glyph unicode="&#xd7;" horiz-adv-x="1368" d="M98 322l398 397l-398 397l189 187l395 -396l399 398l187 -187l-398 -399l400 -400l-189 -186l-399 399l-397 -397z" />
<glyph unicode="&#xd8;" d="M82 356v717q0 176 89 268.5t263 92.5h232q47 0 98 -11l53 123h174l-82 -190q109 -90 109 -283v-717q0 -186 -92 -271t-260 -85h-232q-59 0 -100 8l-53 -125h-175l82 191q-106 88 -106 282zM350 455l250 583h-166q-41 0 -62.5 -19.5t-21.5 -68.5v-469v-26zM498 393h168 q53 0 68.5 20.5t15.5 67.5v469q0 8 -1 14.5t-1 12.5z" />
<glyph unicode="&#xd9;" horiz-adv-x="1114" d="M90 0zM90 356v1078h266v-955q0 -47 21.5 -66.5t66.5 -19.5h228q43 0 64.5 19.5t21.5 66.5v955h266v-1078q0 -80 -17.5 -145.5t-57.5 -112.5t-103.5 -72.5t-153.5 -25.5h-268q-174 0 -254 98.5t-80 257.5zM258 1954h310l163 -455h-286z" />
<glyph unicode="&#xda;" horiz-adv-x="1114" d="M90 0zM90 356v1078h266v-955q0 -47 21.5 -66.5t66.5 -19.5h228q43 0 64.5 19.5t21.5 66.5v955h266v-1078q0 -80 -17.5 -145.5t-57.5 -112.5t-103.5 -72.5t-153.5 -25.5h-268q-174 0 -254 98.5t-80 257.5zM381 1499l164 455h309l-186 -455h-287z" />
<glyph unicode="&#xdb;" horiz-adv-x="1114" d="M90 0zM90 356v1078h266v-955q0 -47 21.5 -66.5t66.5 -19.5h228q43 0 64.5 19.5t21.5 66.5v955h266v-1078q0 -80 -17.5 -145.5t-57.5 -112.5t-103.5 -72.5t-153.5 -25.5h-268q-174 0 -254 98.5t-80 257.5zM155 1499l258 455h289l254 -455h-254l-145 273l-144 -273h-258z " />
<glyph unicode="&#xdc;" horiz-adv-x="1114" d="M90 0zM90 356v1078h266v-955q0 -47 21.5 -66.5t66.5 -19.5h228q43 0 64.5 19.5t21.5 66.5v955h266v-1078q0 -80 -17.5 -145.5t-57.5 -112.5t-103.5 -72.5t-153.5 -25.5h-268q-174 0 -254 98.5t-80 257.5zM157 1604v233q0 51 52 51h204q51 0 52 -51v-233q0 -51 -52 -52 h-204q-51 0 -52 52zM649 1604v233q0 51 51 51h205q51 0 51 -51v-233q0 -51 -51 -52h-205q-51 0 -51 52z" />
<glyph unicode="&#xdd;" horiz-adv-x="1122" d="M88 0zM88 905v529h268v-486q0 -41 16.5 -60.5t57.5 -19.5h328v566h266v-1078q0 -166 -88 -261t-266 -95h-453v393h453q82 0 82 66v59h-308q-174 0 -265 94.5t-91 292.5zM385 1499l164 455h309l-186 -455h-287z" />
<glyph unicode="&#xde;" horiz-adv-x="1077" d="M98 0v621h607q66 0 65 59q0 61 -65 61h-607v693h267v-299h315q100 0 167.5 -17.5t108.5 -59.5t58.5 -111.5t17.5 -172.5v-190q0 -100 -16.5 -169t-56 -110t-107.5 -59.5t-172 -18.5h-315v-227h-267z" />
<glyph unicode="&#xdf;" horiz-adv-x="1320" d="M57 0v1073q0 168 87 264.5t268 96.5h69q180 0 267.5 -96.5t87.5 -264.5v-201q0 -45 75 -45h64q162 0 235.5 -78.5t73.5 -216.5v-135q0 -199 -85 -298t-271 -99h-504v393h516q76 0 76 64v35q0 43 -76 43h-109q-127 0 -194.5 68.5t-67.5 207.5v158q0 70 -88 69h-69 q-88 0 -88 -69v-969h-267z" />
<glyph unicode="&#xe0;" horiz-adv-x="1116" d="M90 0v952q0 242 92 362t264 120h216q176 0 270 -120t94 -362v-952h-266v492h-404v-492h-266zM90 0zM260 1954h310l163 -455h-286zM356 799h404v100q0 72 -26.5 105.5t-86.5 33.5h-182q-109 0 -109 -139v-100z" />
<glyph unicode="&#xe1;" horiz-adv-x="1116" d="M90 0v952q0 242 92 362t264 120h216q176 0 270 -120t94 -362v-952h-266v492h-404v-492h-266zM90 0zM356 799h404v100q0 72 -26.5 105.5t-86.5 33.5h-182q-109 0 -109 -139v-100zM383 1499l164 455h309l-186 -455h-287z" />
<glyph unicode="&#xe2;" horiz-adv-x="1116" d="M90 0v952q0 242 92 362t264 120h216q176 0 270 -120t94 -362v-952h-266v492h-404v-492h-266zM90 0zM157 1499l258 455h289l254 -455h-254l-145 273l-144 -273h-258zM356 799h404v100q0 72 -26.5 105.5t-86.5 33.5h-182q-109 0 -109 -139v-100z" />
<glyph unicode="&#xe3;" horiz-adv-x="1116" d="M90 0v952q0 242 92 362t264 120h216q176 0 270 -120t94 -362v-952h-266v492h-404v-492h-266zM90 0zM94 1573v278h928v-278h-928zM356 799h404v100q0 72 -26.5 105.5t-86.5 33.5h-182q-109 0 -109 -139v-100z" />
<glyph unicode="&#xe4;" horiz-adv-x="1116" d="M90 0v952q0 242 92 362t264 120h216q176 0 270 -120t94 -362v-952h-266v492h-404v-492h-266zM90 0zM157 1604v233q0 51 52 51h204q51 0 52 -51v-233q0 -51 -52 -52h-204q-51 0 -52 52zM356 799h404v100q0 72 -26.5 105.5t-86.5 33.5h-182q-109 0 -109 -139v-100z M649 1604v233q0 51 51 51h205q51 0 51 -51v-233q0 -51 -51 -52h-205q-51 0 -51 52z" />
<glyph unicode="&#xe5;" horiz-adv-x="1116" d="M90 0v952q0 242 92 362t264 120h216q176 0 270 -120t94 -362v-952h-266v492h-404v-492h-266zM90 0zM307 1614v215q0 66 27 95.5t98 29.5h248q72 0 99.5 -30t27.5 -95v-215q0 -66 -27.5 -95.5t-99.5 -29.5h-248q-72 0 -98.5 29.5t-26.5 95.5zM356 799h404v100 q0 72 -26.5 105.5t-86.5 33.5h-182q-109 0 -109 -139v-100zM442 1645q0 -31 31 -31h168q29 0 29 31v161q0 33 -29 33h-168q-31 0 -31 -33v-161z" />
<glyph unicode="&#xe6;" horiz-adv-x="1763" d="M90 0v952q0 242 92 362t264 120h1250v-396h-1231q-100 0 -109 -116h1217v-394h-545v-135h668v-393h-934v614h-406v-614h-266zM90 0z" />
<glyph unicode="&#xe7;" horiz-adv-x="1077" d="M82 0zM82 356v717q0 176 89 268.5t263 92.5h584v-396h-584q-41 0 -62.5 -19.5t-21.5 -68.5v-469q0 -47 15.5 -67.5t68.5 -20.5h584v-393h-584q-168 0 -260 85t-92 271zM397 -504l58 170v234q0 51 51 51h205q51 0 51 -51v-152q0 -14 -4 -27l-115 -225h-246z" />
<glyph unicode="&#xe8;" d="M98 0v922h811v-394h-544v-135h667v-393h-934zM98 0zM98 1040v394h934v-396zM270 1954h310l163 -455h-286z" />
<glyph unicode="&#xe9;" d="M98 0v922h811v-394h-544v-135h667v-393h-934zM98 0zM98 1040v394h934v-396zM395 1499l164 455h309l-186 -455h-287z" />
<glyph unicode="&#xea;" d="M98 0v922h811v-394h-544v-135h667v-393h-934zM98 0zM98 1040v394h934v-396zM168 1499l258 455h289l254 -455h-254l-145 273l-144 -273h-258z" />
<glyph unicode="&#xeb;" d="M98 0v922h811v-394h-544v-135h667v-393h-934zM98 0zM98 1040v394h934v-396zM168 1604v233q0 51 52 51h204q51 0 52 -51v-233q0 -51 -52 -52h-204q-51 0 -52 52zM660 1604v233q0 51 51 51h205q51 0 51 -51v-233q0 -51 -51 -52h-205q-51 0 -51 52z" />
<glyph unicode="&#xec;" horiz-adv-x="532" d="M4 0zM4 1954h310l163 -455h-286zM168 0v1434h267v-1434h-267z" />
<glyph unicode="&#xed;" horiz-adv-x="559" d="M57 0zM57 1499l164 455h309l-186 -455h-287zM98 0v1434h267v-1434h-267z" />
<glyph unicode="&#xee;" horiz-adv-x="735" d="M-33 1499l258 455h289l254 -455h-254l-145 273l-144 -273h-258zM0 0zM233 0v1434h267v-1434h-267z" />
<glyph unicode="&#xef;" horiz-adv-x="708" d="M-45 1604v233q0 51 52 51h204q51 0 52 -51v-233q0 -51 -52 -52h-204q-51 0 -52 52zM0 0zM221 0v1434h267v-1434h-267zM447 1604v233q0 51 51 51h205q51 0 51 -51v-233q0 -51 -51 -52h-205q-51 0 -51 52z" />
<glyph unicode="&#xf0;" horiz-adv-x="1165" d="M0 0zM0 516v307h145v95h267v-95h174v-307h-174v-123h317q88 0 88 70v491q0 31 -29.5 57.5t-58.5 26.5h-584v396h584q168 0 261 -96.5t93 -264.5v-717q0 -68 -23.5 -132t-68.5 -113.5t-110.5 -80t-151.5 -30.5h-584v516h-145z" />
<glyph unicode="&#xf1;" horiz-adv-x="1122" d="M94 0v1294q0 78 40 118t93 40q39 0 77 -22.5t67 -69.5l393 -686v758h264v-1328q0 -66 -31.5 -98.5t-74.5 -32.5q-35 0 -69 19.5t-58 60.5l-435 699v-752h-266zM94 0zM98 1573v278h928v-278h-928z" />
<glyph unicode="&#xf2;" d="M82 0zM82 356v717q0 176 89 268.5t263 92.5h232q174 0 263 -92.5t89 -268.5v-717q0 -186 -92 -271t-260 -85h-232q-168 0 -260 85t-92 271zM252 1954h310l163 -455h-286zM350 481q0 -47 15.5 -67.5t68.5 -20.5h232q53 0 68.5 20.5t15.5 67.5v469q0 49 -21.5 68.5 t-62.5 19.5h-232q-41 0 -62.5 -19.5t-21.5 -68.5v-469z" />
<glyph unicode="&#xf3;" d="M82 0zM82 356v717q0 176 89 268.5t263 92.5h232q174 0 263 -92.5t89 -268.5v-717q0 -186 -92 -271t-260 -85h-232q-168 0 -260 85t-92 271zM350 481q0 -47 15.5 -67.5t68.5 -20.5h232q53 0 68.5 20.5t15.5 67.5v469q0 49 -21.5 68.5t-62.5 19.5h-232q-41 0 -62.5 -19.5 t-21.5 -68.5v-469zM374 1499l164 455h309l-186 -455h-287z" />
<glyph unicode="&#xf4;" d="M82 0zM82 356v717q0 176 89 268.5t263 92.5h232q174 0 263 -92.5t89 -268.5v-717q0 -186 -92 -271t-260 -85h-232q-168 0 -260 85t-92 271zM149 1499l258 455h289l254 -455h-254l-145 273l-144 -273h-258zM350 481q0 -47 15.5 -67.5t68.5 -20.5h232q53 0 68.5 20.5 t15.5 67.5v469q0 49 -21.5 68.5t-62.5 19.5h-232q-41 0 -62.5 -19.5t-21.5 -68.5v-469z" />
<glyph unicode="&#xf5;" d="M82 0zM82 356v717q0 176 89 268.5t263 92.5h232q174 0 263 -92.5t89 -268.5v-717q0 -186 -92 -271t-260 -85h-232q-168 0 -260 85t-92 271zM86 1573v278h928v-278h-928zM350 481q0 -47 15.5 -67.5t68.5 -20.5h232q53 0 68.5 20.5t15.5 67.5v469q0 49 -21.5 68.5 t-62.5 19.5h-232q-41 0 -62.5 -19.5t-21.5 -68.5v-469z" />
<glyph unicode="&#xf6;" d="M82 0zM82 356v717q0 176 89 268.5t263 92.5h232q174 0 263 -92.5t89 -268.5v-717q0 -186 -92 -271t-260 -85h-232q-168 0 -260 85t-92 271zM149 1604v233q0 51 52 51h204q51 0 52 -51v-233q0 -51 -52 -52h-204q-51 0 -52 52zM350 481q0 -47 15.5 -67.5t68.5 -20.5h232 q53 0 68.5 20.5t15.5 67.5v469q0 49 -21.5 68.5t-62.5 19.5h-232q-41 0 -62.5 -19.5t-21.5 -68.5v-469zM641 1604v233q0 51 51 51h205q51 0 51 -51v-233q0 -51 -51 -52h-205q-51 0 -51 52z" />
<glyph unicode="&#xf7;" horiz-adv-x="1030" d="M98 82zM98 588v264h834v-264h-834zM361 133v234q0 51 51 51h205q51 0 51 -51v-234q0 -51 -51 -51h-205q-51 0 -51 51zM361 1067v234q0 51 51 51h205q51 0 51 -51v-234q0 -51 -51 -51h-205q-51 0 -51 51z" />
<glyph unicode="&#xf8;" d="M82 0zM82 356v717q0 176 89 268.5t263 92.5h232q47 0 98 -11l53 123h174l-82 -190q109 -90 109 -283v-717q0 -186 -92 -271t-260 -85h-232q-59 0 -100 8l-53 -125h-175l82 191q-106 88 -106 282zM350 455l250 583h-166q-41 0 -62.5 -19.5t-21.5 -68.5v-469v-26zM498 393 h168q53 0 68.5 20.5t15.5 67.5v469q0 8 -1 14.5t-1 12.5z" />
<glyph unicode="&#xf9;" horiz-adv-x="1114" d="M90 0zM90 356v1078h266v-955q0 -47 21.5 -66.5t66.5 -19.5h228q43 0 64.5 19.5t21.5 66.5v955h266v-1078q0 -80 -17.5 -145.5t-57.5 -112.5t-103.5 -72.5t-153.5 -25.5h-268q-174 0 -254 98.5t-80 257.5zM258 1954h310l163 -455h-286z" />
<glyph unicode="&#xfa;" horiz-adv-x="1114" d="M90 0zM90 356v1078h266v-955q0 -47 21.5 -66.5t66.5 -19.5h228q43 0 64.5 19.5t21.5 66.5v955h266v-1078q0 -80 -17.5 -145.5t-57.5 -112.5t-103.5 -72.5t-153.5 -25.5h-268q-174 0 -254 98.5t-80 257.5zM381 1499l164 455h309l-186 -455h-287z" />
<glyph unicode="&#xfb;" horiz-adv-x="1114" d="M90 0zM90 356v1078h266v-955q0 -47 21.5 -66.5t66.5 -19.5h228q43 0 64.5 19.5t21.5 66.5v955h266v-1078q0 -80 -17.5 -145.5t-57.5 -112.5t-103.5 -72.5t-153.5 -25.5h-268q-174 0 -254 98.5t-80 257.5zM155 1499l258 455h289l254 -455h-254l-145 273l-144 -273h-258z " />
<glyph unicode="&#xfc;" horiz-adv-x="1114" d="M90 0zM90 356v1078h266v-955q0 -47 21.5 -66.5t66.5 -19.5h228q43 0 64.5 19.5t21.5 66.5v955h266v-1078q0 -80 -17.5 -145.5t-57.5 -112.5t-103.5 -72.5t-153.5 -25.5h-268q-174 0 -254 98.5t-80 257.5zM157 1604v233q0 51 52 51h204q51 0 52 -51v-233q0 -51 -52 -52 h-204q-51 0 -52 52zM649 1604v233q0 51 51 51h205q51 0 51 -51v-233q0 -51 -51 -52h-205q-51 0 -51 52z" />
<glyph unicode="&#xfd;" horiz-adv-x="1122" d="M88 0zM88 905v529h268v-486q0 -41 16.5 -60.5t57.5 -19.5h328v566h266v-1078q0 -166 -88 -261t-266 -95h-453v393h453q82 0 82 66v59h-308q-174 0 -265 94.5t-91 292.5zM385 1499l164 455h309l-186 -455h-287z" />
<glyph unicode="&#xfe;" horiz-adv-x="1077" d="M98 0v621h607q66 0 65 59q0 61 -65 61h-607v693h267v-299h315q100 0 167.5 -17.5t108.5 -59.5t58.5 -111.5t17.5 -172.5v-190q0 -100 -16.5 -169t-56 -110t-107.5 -59.5t-172 -18.5h-315v-227h-267zM98 0z" />
<glyph unicode="&#xff;" horiz-adv-x="1122" d="M88 0zM88 905v529h268v-486q0 -41 16.5 -60.5t57.5 -19.5h328v566h266v-1078q0 -166 -88 -261t-266 -95h-453v393h453q82 0 82 66v59h-308q-174 0 -265 94.5t-91 292.5zM161 1604v233q0 51 52 51h204q51 0 52 -51v-233q0 -51 -52 -52h-204q-51 0 -52 52zM653 1604v233 q0 51 51 51h205q51 0 51 -51v-233q0 -51 -51 -52h-205q-51 0 -51 52z" />
<glyph unicode="&#x152;" horiz-adv-x="1748" d="M82 356v717q0 178 89 269.5t263 91.5h1247v-396h-1247q-41 0 -62.5 -19.5t-21.5 -68.5v-469q0 -47 15.5 -67.5t68.5 -20.5h314v529h811v-394h-545v-135h667v-393h-1247q-168 0 -260 85t-92 271z" />
<glyph unicode="&#x153;" horiz-adv-x="1748" d="M82 0zM82 356v717q0 178 89 269.5t263 91.5h1247v-396h-1247q-41 0 -62.5 -19.5t-21.5 -68.5v-469q0 -47 15.5 -67.5t68.5 -20.5h314v529h811v-394h-545v-135h667v-393h-1247q-168 0 -260 85t-92 271z" />
<glyph unicode="&#x178;" horiz-adv-x="1122" d="M88 0zM88 905v529h268v-486q0 -41 16.5 -60.5t57.5 -19.5h328v566h266v-1078q0 -166 -88 -261t-266 -95h-453v393h453q82 0 82 66v59h-308q-174 0 -265 94.5t-91 292.5zM161 1604v233q0 51 52 51h204q51 0 52 -51v-233q0 -51 -52 -52h-204q-51 0 -52 52zM653 1604v233 q0 51 51 51h205q51 0 51 -51v-233q0 -51 -51 -52h-205q-51 0 -51 52z" />
<glyph unicode="&#x2c6;" horiz-adv-x="997" d="M98 1499l258 455h289l254 -455h-254l-145 273l-144 -273h-258z" />
<glyph unicode="&#x2dc;" horiz-adv-x="1124" d="M98 1573v278h928v-278h-928z" />
<glyph unicode="&#x2000;" horiz-adv-x="977" />
<glyph unicode="&#x2001;" horiz-adv-x="1954" />
<glyph unicode="&#x2002;" horiz-adv-x="977" />
<glyph unicode="&#x2003;" horiz-adv-x="1954" />
<glyph unicode="&#x2004;" horiz-adv-x="651" />
<glyph unicode="&#x2005;" horiz-adv-x="488" />
<glyph unicode="&#x2006;" horiz-adv-x="325" />
<glyph unicode="&#x2007;" horiz-adv-x="325" />
<glyph unicode="&#x2008;" horiz-adv-x="244" />
<glyph unicode="&#x2009;" horiz-adv-x="390" />
<glyph unicode="&#x200a;" horiz-adv-x="108" />
<glyph unicode="&#x2010;" horiz-adv-x="749" d="M43 569v320h664v-320h-664z" />
<glyph unicode="&#x2011;" horiz-adv-x="749" d="M43 569v320h664v-320h-664z" />
<glyph unicode="&#x2012;" horiz-adv-x="749" d="M43 569v320h664v-320h-664z" />
<glyph unicode="&#x2013;" horiz-adv-x="1370" d="M43 569v320h1284v-320h-1284z" />
<glyph unicode="&#x2014;" horiz-adv-x="1828" d="M0 569v320h1831v-320h-1831z" />
<glyph unicode="&#x2018;" horiz-adv-x="512" d="M74 1231v151q0 51 51 52h205q51 0 51 -52v-233l57 -252h-245l-115 307q-4 12 -4 27z" />
<glyph unicode="&#x2019;" horiz-adv-x="512" d="M74 897l57 252v233q0 51 51 52h205q51 0 51 -52v-151q0 -14 -4 -27l-115 -307h-245z" />
<glyph unicode="&#x201a;" horiz-adv-x="512" d="M74 -201l57 252v234q0 51 51 51h205q51 0 51 -51v-152q0 -14 -4 -27l-115 -307h-245z" />
<glyph unicode="&#x201c;" horiz-adv-x="901" d="M74 897zM74 1231v151q0 51 51 52h205q51 0 51 -52v-233l57 -252h-245l-115 307q-4 12 -4 27zM463 1231v151q0 51 51 52h205q51 0 51 -52v-233l57 -252h-245l-115 307q-4 12 -4 27z" />
<glyph unicode="&#x201d;" horiz-adv-x="901" d="M74 897l57 252v233q0 51 51 52h205q51 0 51 -52v-151q0 -14 -4 -27l-115 -307h-245zM74 897zM463 897l57 252v233q0 51 51 52h205q51 0 51 -52v-151q0 -14 -4 -27l-115 -307h-245z" />
<glyph unicode="&#x201e;" horiz-adv-x="901" d="M74 0zM74 -201l57 252v234q0 51 51 51h205q51 0 51 -51v-152q0 -14 -4 -27l-115 -307h-245zM463 -201l57 252v234q0 51 51 51h205q51 0 51 -51v-152q0 -14 -4 -27l-115 -307h-245z" />
<glyph unicode="&#x2022;" horiz-adv-x="686" d="M98 602v242q0 66 29 96.5t100 30.5h234q72 0 99.5 -31t27.5 -96v-242q0 -66 -28 -97.5t-99 -31.5h-234q-72 0 -100.5 32t-28.5 97z" />
<glyph unicode="&#x2026;" horiz-adv-x="1830" d="M98 0zM99 51v234q0 51 51 51h205q51 0 51 -51v-234q0 -51 -51 -51h-205q-51 0 -51 51zM762 51v234q0 51 51 51h205q51 0 51 -51v-234q0 -51 -51 -51h-205q-51 0 -51 51zM1426 51v234q0 51 51 51h205q51 0 51 -51v-234q0 -51 -51 -51h-205q-51 0 -51 51z" />
<glyph unicode="&#x202f;" horiz-adv-x="390" />
<glyph unicode="&#x2039;" horiz-adv-x="497" d="M27 690q0 80 69 152l373 407v-364l-174 -195l174 -192v-367l-373 412q-35 39 -52 74.5t-17 72.5z" />
<glyph unicode="&#x203a;" horiz-adv-x="497" d="M27 131v367l176 192l-176 195v364l374 -407q68 -74 68 -152q0 -74 -68 -147z" />
<glyph unicode="&#x205f;" horiz-adv-x="488" />
<glyph unicode="&#x20ac;" horiz-adv-x="1015" d="M10 526l45 117h86v131h-131l45 117h86v184q0 74 22.5 139.5t67.5 113.5t111 77t152 29h505l-131 -394h-374q-86 0 -86 -69v-80h411l-39 -117h-372v-131h327l-41 -117h-286v-92q0 -29 15 -35t71 -6h471v-393h-471q-168 0 -260.5 94t-92.5 262v170h-131z" />
<glyph unicode="&#x2122;" horiz-adv-x="1511" d="M39 1206v228h536v-228h-536zM231 612v525h154v-525h-154zM668 612v729q0 51 27.5 77t62.5 26q29 0 53.5 -15.5t36.5 -46.5l192 -469l195 469q12 31 36.5 46.5t51.5 15.5q35 0 62.5 -25.5t27.5 -77.5v-729h-151v387l-158 -346q-19 -43 -64 -43q-43 0 -63 43l-156 346v-387 h-153z" />
<glyph unicode="&#x25fc;" horiz-adv-x="1433" d="M0 0v1434h1434v-1434h-1434z" />
</font>
</defs>
</svg>
